# xmcd
# 
# Track frame offsets:
#     150
#     23611
#     42270
#     69512
#     91389
#     108096
#     126212
#     147468
#     166501
#     191069
#     212983
#     237710
#     259265
#     279848
#     285126
#     295446
# 
# Disc length: 4151
# 
# Revision: 1
# Processed by: cddbd v1.5.2PL0 Copyright (c) Steve Scherf et al.
# Submitted via: BonkEnc v1.0.6
# 
DISCID=eb103510
DTITLE=Various Artist - 輝け！木曜ドラマ王90’s
DYEAR=0
DGENRE=JPop
TTITLE0=悲しみは雪のように/浜田省吾
TTITLE1=Make-up Shadow/井上陽水
TTITLE2=PRIDE/今井美樹
TTITLE3=わらの犬/藤井フミヤ
TTITLE4=MOTHER/Puffy
TTITLE5=There will be love there-愛のある場所-/the briliant green
TTITLE6=君を待つ青春/城之内ミサ
TTITLE7=JOSWPH! JOSEPH!/EVE
TTITLE8=I WILL/上田知華
TTITLE9=誰がために鐘は鳴る/rough laugh
TTITLE10=風の時代/藤井フミヤ
TTITLE11=愛はひとつ/近藤真彦
TTITLE12=とどかぬ想い/ビリー・ヒューズ
TTITLE13=NIGHT HEAD Theme
TTITLE14=カムフラージュ
TTITLE15=渡る世間は鬼ばかり
EXTD=
EXTT0=
EXTT1=
EXTT2=
EXTT3=
EXTT4=
EXTT5=
EXTT6=
EXTT7=
EXTT8=
EXTT9=
EXTT10=
EXTT11=
EXTT12=
EXTT13=
EXTT14=
EXTT15=
PLAYORDER=
